<svg xmlns="http://www.w3.org/2000/svg" viewBox="0 0 500 500">
<title>Warning</title>
<path class="area" d="M231.45,79,15,457.74C8.11,469.81,18.14,484,33.55,484h432.9c15.41,0,25.44-14.19,18.54-26.26L268.55,79C260.91,65.66,239.09,65.66,231.45,79Z" style="fill:#fbb03b;stroke:black;stroke-miterlimit:10;stroke-width:5px"/>
<path class="exclamation" fill="#1f212a" d="M258.06,366.29H241.44a3.1,3.1,0,0,1-3.08-3L229.58,184.7A11.14,11.14,0,0,1,240.72,173h18.53a11.15,11.15,0,0,1,11.14,11.73l-9.24,178.62A3.09,3.09,0,0,1,258.06,366.29Z"/>
<circle class="exclamation" cx="249.5" cy="403.5" r="19.5" fill="#1f212a"/></svg>
