<svg xmlns="http://www.w3.org/2000/svg" viewBox="0 0 500 500">
<title>Cog</title>
<path d="M179.92,29.17C190,29.33,197.58,33.6,203.78,41c12.39,14.88,28.42,22.57,47.79,22.35,19.15-.21,34.91-8.09,47.12-22.85,7-8.44,15.87-12.54,26.66-11,5.21.74,10.3,2.9,15.23,4.94a227,227,0,0,1,59.06,35.65c10.54,8.76,13.81,20.42,9.41,33.27-13.11,38.31,8,74.74,47.79,82.43,14.19,2.75,22.18,11,24.85,25.13a213.55,213.55,0,0,1-.34,79.53c-2.37,12.66-12.12,21.93-25.12,23.91-40.31,6.15-63.07,44.91-48.79,83.11,5.15,13.77,2,25.61-9.3,34.93a234.25,234.25,0,0,1-58.72,35.3c-14.62,6.11-27,3-36.91-9.3-21.83-27.11-59.46-31.89-86.06-10.68a78.25,78.25,0,0,0-12,12.71c-9.23,11.67-21.72,15.36-35.58,10.08A234.4,234.4,0,0,1,103,432.27c-10.73-8.83-13.56-21.52-7.84-35.2C110.26,360.84,90,321.4,51.88,313c-2.7-.59-5.45-.9-8.18-1.34a28.68,28.68,0,0,1-24.16-24.12,227.27,227.27,0,0,1,1.07-78.64c2.67-14.22,12-23.11,26.65-25.14,40.8-5.68,64-43.91,50.19-82.61-5.08-14.24-1.6-26.19,10.33-35.48a231.78,231.78,0,0,1,61.51-34.31,42.66,42.66,0,0,1,6.08-1.75A35.62,35.62,0,0,1,179.92,29.17Zm71.21,299.9c43.47-.17,78.09-35.25,78-79-.12-42-35.42-77.25-77.28-77.2-44.32,0-79,34.77-78.93,79C173,294.22,208.46,329.24,251.13,329.07Z"/>
</svg>