<?xml version="1.0" encoding="iso-8859-1"?>
<!-- Generator: Adobe Illustrator 19.0.0, SVG Export Plug-In . SVG Version: 6.00 Build 0)  -->
<svg version="1.1" id="Layer_1" xmlns="http://www.w3.org/2000/svg" xmlns:xlink="http://www.w3.org/1999/xlink" x="0px" y="0px"
	 viewBox="0 0 512.001 512.001" style="enable-background:new 0 0 512.001 512.001;" xml:space="preserve">
<path style="fill:#FF6464;" d="M4.66,369.533c0-34.956,28.174-63.293,62.928-63.293c17.226,0,32.822,6.971,44.179,18.254
	c4.212,4.183,11.076,4.183,15.287,0c11.358-11.282,26.954-18.254,44.179-18.254c34.754,0,62.928,28.337,62.928,63.293l0,0
	c0,65.369-84.175,124.837-108.338,140.56c-3.906,2.542-8.92,2.542-12.826,0C88.836,494.37,4.66,434.903,4.66,369.533"/>
<path style="fill:#D2555A;" d="M93.181,311.762c-7.824-3.519-16.466-5.521-25.593-5.521c-34.754,0-62.928,28.337-62.928,63.294
	c0,65.369,84.175,124.837,108.338,140.56c1.953,1.271,4.183,1.907,6.413,1.907C33.415,394.614,64.014,328.924,93.181,311.762z"/>
<path style="fill:#515262;" d="M455.271,380.385c-19.131-1.098-35.876,9.454-43.908,25.2c-1.773,3.477-4.729,6.208-8.434,7.433
	c-0.046,0.015-0.092,0.031-0.138,0.045c-3.15,1.038-6.298-1.647-5.804-4.928c1.085-7.206,2.789-14.209,5.049-20.96
	c1.227-3.665,3.91-6.608,7.357-8.357c15.79-8.015,26.378-24.784,25.279-43.947c-1.344-23.427-20.833-42.564-44.278-43.509
	c-26.426-1.066-48.184,20.042-48.184,46.231c0,18.041,10.345,33.63,25.413,41.253c3.416,1.728,6.067,4.65,7.284,8.28
	c2.267,6.766,3.978,13.786,5.066,21.009c0.493,3.28-2.654,5.966-5.804,4.928c-0.047-0.015-0.095-0.031-0.142-0.047
	c-3.702-1.225-6.656-3.954-8.428-7.428c-8.03-15.748-24.776-26.302-43.91-25.204c-23.427,1.344-42.564,20.833-43.509,44.278
	c-1.065,26.426,20.043,48.184,46.231,48.184c17.983,0,33.528-10.278,41.178-25.265c1.78-3.487,4.748-6.225,8.464-7.454
	c0.043-0.014,0.086-0.029,0.129-0.043c3.152-1.038,6.291,1.65,5.804,4.932c-3.267,21.981-12.277,42.084-25.455,58.745
	c-2.636,3.333-0.195,8.238,4.055,8.238h59.784c4.25,0,6.691-4.905,4.055-8.238c-13.178-16.661-22.188-36.764-25.455-58.745
	c-0.488-3.283,2.651-5.97,5.804-4.932c0.043,0.014,0.086,0.029,0.129,0.043c3.717,1.229,6.684,3.968,8.464,7.454
	c7.65,14.988,23.195,25.265,41.178,25.265c26.19,0,47.297-21.759,46.231-48.184C497.835,401.218,478.698,381.729,455.271,380.385z"
	/>
<g>
	<path style="fill:#464655;" d="M308.65,424.663c0.77-19.103,13.619-35.573,31.022-41.748c-5.582-1.957-11.645-2.894-17.982-2.531
		c-23.427,1.344-42.564,20.833-43.508,44.278c-1.065,26.426,20.043,48.184,46.231,48.184c5.354,0,10.483-0.929,15.261-2.604
		C321.034,463.749,307.803,445.707,308.65,424.663z"/>
	<path style="fill:#464655;" d="M378.26,367.908c-2.207-7.398-5.582-22.033-5.582-30.313c0-22.934,12.96-37.32,31-43.635
		c-4.205-1.494-8.663-2.41-13.283-2.596c-26.427-1.066-48.184,20.042-48.184,46.231c0,17.268,9.489,32.268,23.513,40.208l0,0
		c0.629,0.356,1.253,0.717,1.9,1.044c3.416,1.729,6.069,4.65,7.284,8.28c2.267,6.766,3.979,13.786,5.066,21.009
		c0.425,2.821-1.849,5.188-4.497,5.137l0.01,0.035c1.078,0.375,7.766,1.109,9.191-3.328
		C386.062,405.677,383.886,386.766,378.26,367.908z"/>
	<path style="fill:#464655;" d="M455.271,380.385c-19.131-1.098-35.876,9.454-43.908,25.2c-1.773,3.477-4.729,6.208-8.434,7.433
		c-0.046,0.015-1.052,0.269-1.494,0.274l0,0c0,0,17.234,2.395,31.021-15.908c8.131-10.794,16.877-15.213,27.98-16.367
		C458.74,380.718,457.023,380.485,455.271,380.385z"/>
	<path style="fill:#464655;" d="M455.271,472.765c-19.131,1.098-35.876-9.454-43.908-25.2c-1.773-3.477-4.729-6.208-8.434-7.433
		c-0.046-0.015-1.052-0.269-1.494-0.274l0,0c0,0,17.234-2.395,31.021,15.908c8.131,10.794,16.877,15.213,27.98,16.367
		C458.74,472.432,457.023,472.664,455.271,472.765z"/>
	<path style="fill:#464655;" d="M377.057,503.762c5.878-14.782,11.82-56.143,1.751-62.445c0,0,1.396,2.254,1.181,3.7
		c-3.267,21.981-12.277,42.084-25.455,58.745c-2.636,3.333-0.195,8.238,4.055,8.238h22.523
		C376.863,512,375.487,507.711,377.057,503.762z"/>
</g>
<path style="fill:#FF6464;" d="M395.166,3.298c28.597,36.988,72.201,80.599,109.183,109.201c4.395,3.399,4.395,9.968,0,13.367
	c-36.982,28.602-80.586,72.212-109.183,109.201c-3.399,4.397-9.97,4.397-13.368,0c-28.597-36.988-72.201-80.599-109.183-109.201
	c-4.395-3.399-4.395-9.968,0-13.367C309.596,83.897,353.2,40.286,381.797,3.298C385.196-1.099,391.766-1.099,395.166,3.298z"/>
<path style="fill:#D2555A;" d="M387.453,235.065c-13.19-36.988-33.3-80.599-50.356-109.201c-2.027-3.399-2.027-9.968,0-13.367
	c17.056-28.602,37.167-72.212,50.356-109.201c0.655-1.838,1.992-2.645,3.14-3.003c-3.121-0.808-6.61,0.177-8.796,3.003
	C353.2,40.285,309.596,83.896,272.614,112.497c-4.395,3.399-4.395,9.968,0,13.367c36.982,28.601,80.586,72.212,109.183,109.201
	c2.185,2.826,5.675,3.811,8.795,3.003C389.445,237.711,388.109,236.904,387.453,235.065z"/>
<path style="fill:#515262;" d="M123.895,1.303c-2.772-1.691-6.198-1.691-8.969,0C93.7,14.252,4.356,72.745,4.356,139.898
	c0,34.902,28.249,63.195,63.095,63.195c11.406,0,22.095-3.039,31.32-8.346c2.645-1.522,5.738,1.168,4.7,4.059
	c-4.922,13.71-11.891,26.429-20.545,37.771c-3.305,4.332-0.131,10.613,5.283,10.613h63.072c5.416,0,8.583-6.284,5.276-10.618
	c-8.556-11.214-15.463-23.772-20.374-37.304c-1.043-2.874,2.006-5.569,4.66-4.091c9.042,5.037,19.444,7.916,30.528,7.916
	c34.847,0,63.095-28.293,63.095-63.195C234.466,72.745,145.122,14.252,123.895,1.303z"/>
<g>
	<path style="fill:#464655;" d="M93.355,197.488C22.467,158.235,89.05,40.518,120.031,0.12c-1.754-0.129-3.533,0.223-5.105,1.183
		C93.7,14.252,4.356,72.745,4.356,139.897c0,34.902,28.249,63.195,63.095,63.195C76.693,203.093,85.45,201.068,93.355,197.488z"/>
	<path style="fill:#464655;" d="M107.518,237.961c4.08-33.915,3.903-43.566-6.535-43.566c1.83,0.373,3.236,2.327,2.488,4.411
		c-4.921,13.71-11.89,26.428-20.545,37.771c-3.305,4.331-0.131,10.613,5.283,10.613h23.853
		C107.299,247.19,107.111,241.349,107.518,237.961z"/>
</g>
<g>
</g>
<g>
</g>
<g>
</g>
<g>
</g>
<g>
</g>
<g>
</g>
<g>
</g>
<g>
</g>
<g>
</g>
<g>
</g>
<g>
</g>
<g>
</g>
<g>
</g>
<g>
</g>
<g>
</g>
</svg>
